<?xml version="1.0" encoding="iso-8859-1"?>
<!-- Uploaded to: SVG Repo, www.svgrepo.com, Generator: SVG Repo Mixer Tools -->
<svg fill="#2B85FF" height="800px" width="800px" version="1.1" id="Layer_1" xmlns="http://www.w3.org/2000/svg" xmlns:xlink="http://www.w3.org/1999/xlink" 
	 viewBox="0 0 512 512" xml:space="preserve">
<g transform="translate(1 1)">
	<g>
		<g>
			<path d="M502.147,168.813L485.933,152.6c-11.947-12.8-34.133-12.8-46.08,0l-47.787,47.787V41.667c0-14.507-11.093-25.6-25.6-25.6
				H272.6C272.6,6.68,264.92-1,255.533-1H136.067C126.68-1,119,6.68,119,16.067H25.133c-14.507,0-25.6,11.093-25.6,25.6V485.4
				c0,14.507,11.093,25.6,25.6,25.6h341.333c14.507,0,25.6-11.093,25.6-25.6V321.207l48.698-49.297
				c1.689-0.317,3.134-1.118,5.062-2.403l35.84-35.84c1.645-1.645,2.489-3.686,2.548-5.741l17.932-18.152
				C513.24,198.68,513.24,179.907,502.147,168.813z M444.41,245.324l-5.41,5.41l-35.84-35.84L427.053,191l35.84,35.84
				L444.41,245.324z M377.561,312.173C377.56,312.173,377.56,312.173,377.561,312.173l-89.601,89.601l-35.84-35.84L355.373,262.68
				c0,0,0,0,0,0l34.133-34.133c0,0,0.001-0.001,0.001-0.001l1.653-1.653l35.523,36.157L377.561,312.173z M136.067,84.333h119.467
				c9.387,0,17.067-7.68,17.067-17.067h68.267v184.32l-107.52,107.52c-1.707,1.707-2.56,3.413-2.56,5.973
				c0,0.148,0.013,0.284,0.018,0.427c-0.001,0.03-0.003,0.059-0.004,0.089L214.573,408.6c-4.267,8.533-1.707,18.773,5.12,25.6
				c5.12,4.267,11.093,6.827,17.067,6.827c3.413,0,5.973,0,9.387-0.853l45.227-17.067c2.234-0.745,4.468-2.79,5-5l44.493-44.493
				V459.8H50.733V67.267H119C119,76.653,126.68,84.333,136.067,84.333z M243.35,381.91l29.487,29.487l-32.664,12.563
				c-4.267,1.707-6.827-0.853-7.68-1.707s-3.413-3.413-1.707-7.68L243.35,381.91z M366.467,33.133c5.12,0,8.533,3.413,8.533,8.533
				v175.787l-17.067,17.067V67.267c0-9.387-7.68-17.067-17.067-17.067H272.6V33.133H366.467z M136.067,16.067h119.467V24.6v34.133
				v8.533H136.067v-8.533V24.6V16.067z M375,485.4c0,5.12-3.413,8.533-8.533,8.533H25.133c-5.12,0-8.533-3.413-8.533-8.533V41.667
				c0-5.12,3.413-8.533,8.533-8.533H119V50.2H50.733c-9.387,0-17.067,7.68-17.067,17.067V459.8c0,9.387,7.68,17.067,17.067,17.067
				h290.133c9.387,0,17.067-7.68,17.067-17.067V356.547L375,339.48V485.4z M490.2,199.533l-15.36,15.36L439,179.053l12.8-12.8
				c5.973-5.973,16.213-5.973,22.187,0l16.213,16.213C495.32,186.733,495.32,194.413,490.2,199.533z"/>
			<path d="M153.133,144.067h85.333c5.12,0,8.533-3.413,8.533-8.533S243.587,127,238.467,127h-85.333
				c-5.12,0-8.533,3.413-8.533,8.533S148.013,144.067,153.133,144.067z"/>
			<path d="M238.467,186.733c0,5.12,3.413,8.533,8.533,8.533h51.2c5.12,0,8.533-3.413,8.533-8.533s-3.413-8.533-8.533-8.533H247
				C241.88,178.2,238.467,181.613,238.467,186.733z"/>
			<path d="M84.867,186.733c0,5.12,3.413,8.533,8.533,8.533h119.467c5.12,0,8.533-3.413,8.533-8.533s-3.413-8.533-8.533-8.533H93.4
				C88.28,178.2,84.867,181.613,84.867,186.733z"/>
			<path d="M298.2,212.333h-25.6c-5.12,0-8.533,3.413-8.533,8.533s3.413,8.533,8.533,8.533h25.6c5.12,0,8.533-3.413,8.533-8.533
				S303.32,212.333,298.2,212.333z"/>
			<path d="M238.467,229.4c5.12,0,8.533-3.413,8.533-8.533s-3.413-8.533-8.533-8.533H170.2c-5.12,0-8.533,3.413-8.533,8.533
				s3.413,8.533,8.533,8.533H238.467z"/>
			<path d="M136.067,212.333H93.4c-5.12,0-8.533,3.413-8.533,8.533S88.28,229.4,93.4,229.4h42.667c5.12,0,8.533-3.413,8.533-8.533
				S141.187,212.333,136.067,212.333z"/>
			<path d="M298.2,246.467h-68.267c-5.12,0-8.533,3.413-8.533,8.533s3.413,8.533,8.533,8.533H298.2c5.12,0,8.533-3.413,8.533-8.533
				S303.32,246.467,298.2,246.467z"/>
			<path d="M136.067,255c0,5.12,3.413,8.533,8.533,8.533h51.2c5.12,0,8.533-3.413,8.533-8.533s-3.413-8.533-8.533-8.533h-51.2
				C139.48,246.467,136.067,249.88,136.067,255z"/>
			<path d="M93.4,263.533h17.067c5.12,0,8.533-3.413,8.533-8.533s-3.413-8.533-8.533-8.533H93.4c-5.12,0-8.533,3.413-8.533,8.533
				S88.28,263.533,93.4,263.533z"/>
			<path d="M247,280.6h-51.2c-5.12,0-8.533,3.413-8.533,8.533s3.413,8.533,8.533,8.533H247c5.12,0,8.533-3.413,8.533-8.533
				S252.12,280.6,247,280.6z"/>
			<path d="M93.4,297.667h68.267c5.12,0,8.533-3.413,8.533-8.533s-3.413-8.533-8.533-8.533H93.4c-5.12,0-8.533,3.413-8.533,8.533
				S88.28,297.667,93.4,297.667z"/>
			<path d="M212.867,314.733H144.6c-5.12,0-8.533,3.413-8.533,8.533s3.413,8.533,8.533,8.533h68.267c5.12,0,8.533-3.413,8.533-8.533
				S217.987,314.733,212.867,314.733z"/>
			<path d="M93.4,331.8h17.067c5.12,0,8.533-3.413,8.533-8.533s-3.413-8.533-8.533-8.533H93.4c-5.12,0-8.533,3.413-8.533,8.533
				S88.28,331.8,93.4,331.8z"/>
			<path d="M187.267,348.867H170.2c-5.12,0-8.533,3.413-8.533,8.533s3.413,8.533,8.533,8.533h17.067c5.12,0,8.533-3.413,8.533-8.533
				S192.387,348.867,187.267,348.867z"/>
			<path d="M136.067,348.867H93.4c-5.12,0-8.533,3.413-8.533,8.533s3.413,8.533,8.533,8.533h42.667c5.12,0,8.533-3.413,8.533-8.533
				S141.187,348.867,136.067,348.867z"/>
		</g>
	</g>
</g>
</svg>
